<?xml version="1.0" encoding="UTF-8" standalone="no"?>
<!-- Created with Inkscape (http://www.inkscape.org/) -->

<svg
   width="1080"
   height="1080"
   viewBox="0 0 1080 1080"
   version="1.1"
   id="svg1"
   inkscape:version="1.3.2 (091e20e, 2023-11-25, custom)"
   sodipodi:docname="tethr.svg"
   xml:space="preserve"
   inkscape:export-filename="tethr.png"
   inkscape:export-xdpi="96"
   inkscape:export-ydpi="96"
   xmlns:inkscape="http://www.inkscape.org/namespaces/inkscape"
   xmlns:sodipodi="http://sodipodi.sourceforge.net/DTD/sodipodi-0.dtd"
   xmlns="http://www.w3.org/2000/svg"
   xmlns:svg="http://www.w3.org/2000/svg"><sodipodi:namedview
     id="namedview1"
     pagecolor="#fef0f0"
     bordercolor="#000000"
     borderopacity="0.25"
     inkscape:showpageshadow="2"
     inkscape:pageopacity="0.0"
     inkscape:pagecheckerboard="0"
     inkscape:deskcolor="#d1d1d1"
     inkscape:document-units="px"
     inkscape:zoom="1.4142136"
     inkscape:cx="544.11867"
     inkscape:cy="646.2956"
     inkscape:window-width="2494"
     inkscape:window-height="2041"
     inkscape:window-x="5173"
     inkscape:window-y="0"
     inkscape:window-maximized="0"
     inkscape:current-layer="layer1"
     showguides="false"
     inkscape:export-bgcolor="#fef0f000" /><defs
     id="defs1" /><g
     inkscape:label="Layer 1"
     inkscape:groupmode="layer"
     id="layer1"><path
       style="fill:none;stroke-width:2.93046"
       d="m 546.81873,917.75977 0.64221,-498.02506"
       id="path1" /><path
       style="fill:#ca5b6d;fill-opacity:1;stroke-width:2.93046"
       d="m 544.75619,915.18973 c 0,0 417.48492,-236.37585 433.22526,-473.33527 9.18286,-138.24182 -60.53606,-219.48898 -177.10467,-227.56501 -103.58373,-7.17647 -181.33862,123.895 -252.4877,203.67069 -3.63747,4.07851 -5.43086,8.38884 -12.71519,9.1026 -6.28049,0.61538 -11.79892,-7.21336 -15.4399,-13.6539 -12.18558,-21.55505 -26.57809,-52.54275 -17.25636,-76.2343 6.69194,-17.00783 33.339,-59.1504 66.69738,-97.41694 34.92913,-40.0684 88.58599,-105.40588 190.33146,-117.63201 116.93034,-14.05082 195.68043,38.9645 250.67123,108.09341 50.4012,63.35926 88.5526,227.597 36.3292,349.31232 -24.8252,57.85894 -49.13154,97.95157 -79.9405,137.28665 C 918.3655,778.99629 847.75515,834.21596 709.60479,933.64328 654.0756,973.60784 540.21503,1043.7639 540.21503,1043.7639 L 442.7672,979.7354 Z"
       id="path2"
       sodipodi:nodetypes="cssssasssssssccc" /><path
       style="fill:#e66c7f;fill-opacity:1;stroke-width:2.93046"
       d="m 442.7799,979.61061 c 0,0 -276.35488,-186.07647 -359.640353,-342.64365 C 28.546086,534.33754 12.933517,435.077 9.9270263,329.62358 c -1.003343,-35.193 -1.92843,-71.53244 5.7799317,-105.3979 16.643621,-73.12105 90.432422,-77.9451 90.432422,-77.9451 0,0 -2.59183,33.11831 4.84247,53.98613 5.58455,15.67567 20.8203,26.14171 38.91577,26.8278 16.7793,0.63617 34.85415,-10.17459 41.13403,-32.02892 5.77779,-20.10704 2.83165,-48.30591 2.83165,-48.30591 l 167.057,1.83699 c 0,0 -3.81188,46.26462 9.58435,62.82471 8.63302,10.67191 24.91264,16.47311 38.67816,14.9617 14.67126,-1.61087 27.08367,-4.11193 36.64915,-24.49636 7.28877,-15.53268 4.0446,-47.99133 4.0446,-47.99133 0,0 36.634,8.5636 52.03684,17.05299 34.20233,18.85083 40.40985,42.0134 40.40985,42.0134 0,0 -42.05409,81.06941 -54.5883,85.28381 -8.15103,2.74062 -407.293373,0.99976 -407.293373,0.99976 0,0 -10.846673,122.59743 37.377553,228.30094 20.55944,45.06453 108.29464,143.90343 199.80321,223.4228 109.25386,94.93966 226.62753,165.18158 226.62753,165.18158 z"
       id="path3"
       sodipodi:nodetypes="cssscsssccaascscscsscc" /><rect
       style="fill:#ca5b6d;fill-opacity:1;stroke-width:3.0866"
       id="rect3-2"
       width="60.851357"
       height="135.3109"
       x="119.69838"
       y="79.039452"
       ry="29.978418" /><rect
       style="fill:#ca5b6d;fill-opacity:1;stroke-width:3.0866"
       id="rect3-2-1"
       width="60.851357"
       height="135.3109"
       x="374.9408"
       y="79.039749"
       ry="29.978418" /><rect
       style="fill:#e36d80;fill-opacity:1;stroke-width:2.90826"
       id="rect3"
       width="86.899368"
       height="84.119804"
       x="142.37236"
       y="401.61398"
       ry="14.411457" /><rect
       style="fill:#e36d80;fill-opacity:1;stroke-width:2.90826"
       id="rect3-5"
       width="86.899368"
       height="84.119804"
       x="248.32773"
       y="401.61334"
       ry="14.411457" /><rect
       style="fill:#e36d80;fill-opacity:1;stroke-width:2.90826"
       id="rect3-5-8"
       width="86.899368"
       height="84.119804"
       x="248.32887"
       y="506.80191"
       ry="14.411457" /><path
       style="fill:#ca5b6d;fill-opacity:1;stroke-width:1.4403"
       d="m 420.98628,496.99982 c 0,0 66.19056,-46.9847 62.64203,-80.65841 -1.27716,-12.11956 -15.00815,-24.72212 -28.11773,-23.84682 -21.78404,1.45447 -35.20035,26.86941 -35.20035,26.86941 l -0.77297,76.52333 z"
       id="path5"
       sodipodi:nodetypes="casccc" /><path
       style="fill:#ca5b6d;fill-opacity:1;stroke-width:1.4403"
       d="m 420.9897,496.9999 c 0,0 -66.19057,-46.9847 -62.64205,-80.65841 1.27716,-12.11956 15.00817,-24.72212 28.11775,-23.84681 21.78402,1.45446 34.88022,26.30164 34.88022,26.30164 z"
       id="path5-0"
       sodipodi:nodetypes="cascc" /></g></svg>
