<?xml version="1.0" encoding="UTF-8" standalone="no"?>
<!-- Created with Inkscape (http://www.inkscape.org/) -->

<svg
   width="1080"
   height="1080"
   viewBox="0 0 1080 1080"
   version="1.1"
   id="svg1"
   inkscape:version="1.3.2 (091e20e, 2023-11-25, custom)"
   sodipodi:docname="tethrAI.svg"
   xml:space="preserve"
   inkscape:export-filename="tethr.png"
   inkscape:export-xdpi="96"
   inkscape:export-ydpi="96"
   xmlns:inkscape="http://www.inkscape.org/namespaces/inkscape"
   xmlns:sodipodi="http://sodipodi.sourceforge.net/DTD/sodipodi-0.dtd"
   xmlns:xlink="http://www.w3.org/1999/xlink"
   xmlns="http://www.w3.org/2000/svg"
   xmlns:svg="http://www.w3.org/2000/svg"><sodipodi:namedview
     id="namedview1"
     pagecolor="#fef0f0"
     bordercolor="#000000"
     borderopacity="0.25"
     inkscape:showpageshadow="2"
     inkscape:pageopacity="0.0"
     inkscape:pagecheckerboard="0"
     inkscape:deskcolor="#d1d1d1"
     inkscape:document-units="px"
     inkscape:zoom="1.4142136"
     inkscape:cx="544.47221"
     inkscape:cy="533.86561"
     inkscape:window-width="2494"
     inkscape:window-height="2041"
     inkscape:window-x="5164"
     inkscape:window-y="0"
     inkscape:window-maximized="0"
     inkscape:current-layer="layer1"
     showguides="false"
     inkscape:export-bgcolor="#fef0f000" /><defs
     id="defs1"><linearGradient
       id="linearGradient3"
       inkscape:collect="always"><stop
         style="stop-color:#6a4fb1;stop-opacity:1;"
         offset="0"
         id="stop4" /><stop
         style="stop-color:#3a2758;stop-opacity:1;"
         offset="1"
         id="stop3" /></linearGradient><linearGradient
       id="linearGradient1"
       inkscape:collect="always"><stop
         style="stop-color:#3a5f9e;stop-opacity:1;"
         offset="0"
         id="stop2" /><stop
         style="stop-color:#1f3354;stop-opacity:1;"
         offset="1"
         id="stop1" /></linearGradient><linearGradient
       inkscape:collect="always"
       xlink:href="#linearGradient1"
       id="linearGradient2"
       x1="833.09015"
       y1="353.41412"
       x2="673.90289"
       y2="800.3056"
       gradientUnits="userSpaceOnUse"
       spreadMethod="pad" /><linearGradient
       inkscape:collect="always"
       xlink:href="#linearGradient3"
       id="linearGradient4"
       x1="402.41797"
       y1="724.16589"
       x2="244.06395"
       y2="231.3125"
       gradientUnits="userSpaceOnUse" /></defs><g
     inkscape:label="Layer 1"
     inkscape:groupmode="layer"
     id="layer1"><path
       style="fill:none;stroke-width:2.93046"
       d="m 546.81873,917.75977 0.64221,-498.02506"
       id="path1" /><path
       style="fill:url(#linearGradient2);fill-opacity:1;stroke-width:2.93046"
       d="m 364.55919,735.51228 c 7.11405,-31.37568 597.68198,-56.6984 613.42226,-293.65782 3.53008,-53.14296 -4.59987,-97.86331 -22.56898,-133.24208 -28.7743,-56.6527 -82.77842,-89.35149 -154.53569,-94.32293 -103.58373,-7.17642 -181.33862,123.895 -252.4877,203.67069 -3.63747,4.07851 -5.43086,8.38884 -12.71519,9.1026 -6.28049,0.61538 -11.79892,-7.21336 -15.4399,-13.6539 -12.18558,-21.55505 -26.57809,-52.54275 -17.25636,-76.2343 6.69194,-17.00783 33.339,-59.1504 66.69738,-97.41694 34.92913,-40.0684 88.58599,-105.40588 190.33146,-117.63201 116.93034,-14.05082 195.68043,38.9645 250.67123,108.09341 50.4012,63.35926 88.5526,227.597 36.3292,349.31232 -24.8252,57.85894 -49.13154,97.95157 -79.9405,137.28665 -48.7009,62.17832 -85.37013,114.56956 -223.52049,213.99688 -55.52919,39.96456 -61.47225,28.15619 -80.0956,32.08509 -18.62335,3.9289 -58.98973,-20.29801 -104.83029,-54.49044 C 512.77946,874.21707 357.44514,766.88797 364.55919,735.51228 Z"
       id="path2"
       sodipodi:nodetypes="zsssssassssssszzz" /><path
       style="fill:url(#linearGradient4);stroke-width:2.93046"
       d="m 500.76265,1030.5223 c 0,0 -334.33763,-236.98816 -417.623103,-393.55534 C 28.546086,534.33754 12.933517,435.077 9.9270263,329.62358 c -1.003343,-35.193 -1.92843,-71.53244 5.7799317,-105.3979 16.643621,-73.12105 90.432422,-77.9451 90.432422,-77.9451 0,0 -2.59183,33.11831 4.84247,53.98613 5.58455,15.67567 20.8203,26.14171 38.91577,26.8278 16.7793,0.63617 34.85415,-10.17459 41.13403,-32.02892 5.77779,-20.10704 2.83165,-48.30591 2.83165,-48.30591 l 167.057,1.83699 c 0,0 -3.81188,46.26462 9.58435,62.82471 8.63302,10.67191 24.91264,16.47311 38.67816,14.9617 14.67126,-1.61087 27.08367,-4.11193 36.64915,-24.49636 7.28877,-15.53268 4.0446,-47.99133 4.0446,-47.99133 0,0 36.634,8.5636 52.03684,17.05299 34.20233,18.85083 54.55199,50.49868 54.55199,50.49868 0,0 -67.50993,99.45421 -80.04415,103.66859 -4.91505,1.65259 -242.68043,-74.61101 -323.93185,-30.81037 -53.494414,28.83753 -27.47497,147.79161 19.87607,189.49494 55.85591,49.19379 436.0448,20.77405 484.26902,126.47756 20.55944,45.06453 -430.52071,61.17194 -339.01214,140.69131 109.25386,94.93966 306.5306,238.72068 306.5306,238.72068 14.26059,60.11133 -68.70124,42.08983 -123.39029,40.83253 z"
       id="path3"
       sodipodi:nodetypes="cssscsssccaascscssssscc" /><rect
       style="fill:#351e56;fill-opacity:1;stroke-width:3.0866"
       id="rect3-2"
       width="60.851357"
       height="135.3109"
       x="119.69838"
       y="79.039452"
       ry="29.978418" /><rect
       style="fill:#351e56;fill-opacity:1;stroke-width:3.0866"
       id="rect3-2-1"
       width="60.851357"
       height="135.3109"
       x="374.9408"
       y="79.039749"
       ry="29.978418" /></g></svg>
